<?xml version="1.0" encoding="utf-8"?>
<!-- Generator: Adobe Illustrator 25.3.0, SVG Export Plug-In . SVG Version: 6.00 Build 0)  -->
<svg version="1.1" id="Layer_1" xmlns="http://www.w3.org/2000/svg" xmlns:xlink="http://www.w3.org/1999/xlink" x="0px" y="0px"
	 viewBox="0 0 118.4 118.3" style="enable-background:new 0 0 118.4 118.3;" xml:space="preserve">
<style type="text/css">
	.st0{fill:#E2E4E9;}
	.st1{fill:#A2A5B6;}
</style>
<g>
	<path class="st0" d="M0,26c0-5.4,0-10.7,0-16.1C0,4,4.1,0,9.9,0c10.8,0,21.6,0,32.4,0c5.7,0,9.8,4.1,9.8,9.8c0,10.8,0,21.7,0,32.5
		c0,5.7-4.1,9.8-9.8,9.8c-10.8,0-21.6,0-32.4,0c-5.8,0-9.9-4.1-9.9-9.9C0,36.8,0,31.4,0,26z"/>
	<path class="st0" d="M92.4,0c5.4,0,10.7,0,16.1,0c5.8,0,9.9,4,9.9,9.8c0,10.8,0,21.6,0,32.4c0,5.8-4.1,9.8-9.9,9.9
		c-10.8,0-21.6,0-32.4,0c-5.7,0-9.8-4.1-9.8-9.8c0-10.8,0-21.7,0-32.5c0-5.7,4.1-9.8,9.8-9.8C81.5,0,87,0,92.4,0z"/>
	<path class="st0" d="M52.1,92.4c0,5.3,0,10.7,0,16c0,6-4,10-10,10c-10.7,0-21.4,0-32.1,0c-6,0-10-4-10-10C0,97.7,0,87,0,76.3
		c0-5.9,4-9.9,9.9-10c10.7,0,21.5,0,32.2,0c5.9,0,9.9,4,9.9,10C52.1,81.7,52.1,87,52.1,92.4z"/>
	<path class="st1" d="M92.4,66.3c14.2,0,26,11.6,26,25.8c0.1,14.5-11.5,26.3-25.8,26.3c-14.5,0-26.2-11.5-26.3-26
		C66.3,78,77.9,66.4,92.4,66.3z"/>
</g>
</svg>
