<?xml version="1.0" encoding="utf-8"?>
<!-- Generator: Adobe Illustrator 25.3.0, SVG Export Plug-In . SVG Version: 6.00 Build 0)  -->
<svg version="1.1" id="Layer_1" xmlns="http://www.w3.org/2000/svg" xmlns:xlink="http://www.w3.org/1999/xlink" x="0px" y="0px"
	 viewBox="0 0 213.2 118.3" style="enable-background:new 0 0 213.2 118.3;" xml:space="preserve">
<style type="text/css">
	.st0{fill:#E2E4EA;}
	.st1{fill:#A2A5B8;}
</style>
<g>
	<path class="st0" d="M26.1,11.8h6.8c1.3,0,2.4,1.1,2.4,2.4V104c0,1.3-1.1,2.4-2.4,2.4h-6.8c-1.3,0-2.4-1.1-2.4-2.4V14.2
		C23.7,12.9,24.8,11.8,26.1,11.8z"/>
	<path class="st0" d="M187,106.4h-6.8c-1.3,0-2.4-1.1-2.4-2.4V14.3c0-1.3,1.1-2.4,2.4-2.4h6.8c1.3,0,2.4,1.1,2.4,2.4V104
		C189.5,105.3,188.4,106.4,187,106.4z"/>
	<path class="st0" d="M2.4,23.6h6.7c1.3,0,2.4,1.1,2.4,2.4v66.2c0,1.3-1.1,2.4-2.4,2.4H2.4c-1.3,0-2.4-1.1-2.4-2.4V26
		C0,24.7,1.1,23.6,2.4,23.6z"/>
	<path class="st0" d="M201.7,92.2V26c0-1.3,1.1-2.4,2.4-2.4h6.7c1.3,0,2.4,1.1,2.4,2.4v66.2c0,1.3-1.1,2.4-2.4,2.4h-6.7
		C202.7,94.6,201.7,93.5,201.7,92.2z"/>
</g>
<path class="st1" d="M159,0H54.2c-3.8,0-6.8,3.1-6.8,6.8v104.7c0,3.8,3.1,6.8,6.8,6.8H159c3.8,0,6.8-3.1,6.8-6.8V6.8
	C165.8,3.1,162.7,0,159,0z M104.3,80.5c0,4.5,0,8.9,0,13.4c0,2.6-1.9,4.4-4.4,4.2l-1.7-0.5c-7.2-3.7-14.5-7.3-21.5-11.3
	c-5.8-3.4-8.7-8.8-8.9-15.6c-0.2-6.6-0.1-13.3,0-19.9c0-3.7,3.2-5.5,6.4-3.6c9.2,5.3,18.4,10.7,27.5,16c1.7,1,2.5,2.4,2.5,4.4
	C104.3,71.9,104.3,76.2,104.3,80.5z M103.9,59.3c-9.8-5.7-19.7-11.4-29.6-17.1c-2.7-1.6-3.2-4.5-0.9-6.7c1.1-1.1,2.3-2,3.6-2.8
	c7-3.9,14-7.8,20.9-11.6c2.7-1.5,5.4-2.1,8.7-2.1c3.2,0,6.2,0.7,9.1,2.3c6.8,3.8,13.6,7.5,20.4,11.3c1.4,0.8,2.7,1.8,3.8,2.9
	c2.1,2,1.7,5-0.8,6.5c-3.5,2.1-7,4.1-10.4,6.1c-6.5,3.7-12.9,7.4-19.4,11.2C107.4,60.4,105.8,60.4,103.9,59.3z M145.3,70.5
	c-0.2,7.2-3.4,12.8-9.8,16.3c-6.7,3.7-13.6,7-20.3,10.7c-3.2,1.8-6.5-0.4-6.4-3.9c0.1-4.3,0-8.7,0-13c0-4.4,0-8.8,0-13.2
	c0-1.8,0.8-3.2,2.4-4.1c9.3-5.4,18.6-10.8,27.9-16.2c2.5-1.4,5.3-0.4,6.1,2.2c0.2,0.6,0.2,1.2,0.2,1.7
	C145.3,57.5,145.5,64,145.3,70.5z"/>
</svg>
