<?xml version="1.0" encoding="utf-8"?>
<!-- Generator: Adobe Illustrator 25.3.0, SVG Export Plug-In . SVG Version: 6.00 Build 0)  -->
<svg version="1.1" id="Layer_1" xmlns="http://www.w3.org/2000/svg" xmlns:xlink="http://www.w3.org/1999/xlink" x="0px" y="0px"
	 viewBox="0 0 213.2 118.3" style="enable-background:new 0 0 213.2 118.3;" xml:space="preserve">
<style type="text/css">
	.st0{fill:#A2A5B6;}
	.st1{fill:#E2E4E9;}
</style>
<g>
	<path class="st0" d="M47.4,111.5V6.8C47.4,3,50.5,0,54.2,0H159c3.8,0,6.8,3.1,6.8,6.8v104.7c0,3.8-3.1,6.8-6.8,6.8H54.2
		C50.4,118.3,47.4,115.2,47.4,111.5z"/>
	<path class="st1" d="M26.1,11.8h6.8c1.3,0,2.4,1.1,2.4,2.4V104c0,1.3-1.1,2.4-2.4,2.4h-6.8c-1.3,0-2.4-1.1-2.4-2.4V14.2
		C23.7,12.9,24.8,11.8,26.1,11.8z"/>
	<path class="st1" d="M187,106.4h-6.8c-1.3,0-2.4-1.1-2.4-2.4V14.3c0-1.3,1.1-2.4,2.4-2.4h6.8c1.3,0,2.4,1.1,2.4,2.4V104
		C189.5,105.3,188.4,106.4,187,106.4z"/>
	<path class="st1" d="M2.4,23.6h6.7c1.3,0,2.4,1.1,2.4,2.4v66.2c0,1.3-1.1,2.4-2.4,2.4H2.4c-1.3,0-2.4-1.1-2.4-2.4V26
		C0,24.7,1.1,23.6,2.4,23.6z"/>
	<path class="st1" d="M201.7,92.2V26c0-1.3,1.1-2.4,2.4-2.4h6.7c1.3,0,2.4,1.1,2.4,2.4v66.2c0,1.3-1.1,2.4-2.4,2.4h-6.7
		C202.7,94.6,201.7,93.5,201.7,92.2z"/>
</g>
</svg>
