<?xml version="1.0" encoding="utf-8"?>
<!-- Generator: Adobe Illustrator 25.3.0, SVG Export Plug-In . SVG Version: 6.00 Build 0)  -->
<svg version="1.1" xmlns="http://www.w3.org/2000/svg" xmlns:xlink="http://www.w3.org/1999/xlink" x="0px" y="0px"
	 viewBox="0 0 118.4 118.3" style="enable-background:new 0 0 118.4 118.3;" xml:space="preserve">
<style type="text/css">
	.st0{fill:#E2E4E9;}
	.st1{fill:#A2A5B6;}
</style>
<g id="Layer_1">
</g>
<g id="Layer_2">
	<g>
		<path class="st0" d="M0,25.7c0-4.5,0-9,0-13.4C0,5.1,5.1,0,12.3,0C21.2,0,30.1,0,39,0c7.2,0,12.2,5.1,12.2,12.3
			c0,8.9,0,17.8,0,26.7c0,7.2-5.1,12.2-12.3,12.2c-8.9,0-17.8,0-26.7,0C5.1,51.2,0,46.1,0,39C0,34.5,0,30.1,0,25.7z"/>
		<path class="st0" d="M25.6,67c4.5,0,9,0,13.4,0c7.1,0,12.2,5.1,12.2,12.2c0,9,0,17.9,0,26.9c0,7.1-5.1,12.2-12.2,12.2
			c-9,0-17.9,0-26.9,0c-7.1,0-12.2-5.1-12.2-12.2c0-9,0-17.9,0-26.9C0,72.2,5.1,67.1,12.2,67C16.7,67,21.2,67,25.6,67z"/>
		<path class="st0" d="M118.3,92.7c0,4.4,0,8.9,0,13.3c0,7.2-5.1,12.3-12.3,12.3c-8.9,0-17.7,0-26.6,0c-7.2,0-12.3-5.1-12.3-12.3
			c0-8.9,0-17.7,0-26.6C67,72.1,72.1,67,79.4,67c8.9,0,17.7,0,26.6,0c7.2,0,12.3,5.1,12.3,12.3C118.3,83.8,118.3,88.2,118.3,92.7z"
			/>
		<path class="st1" d="M88.7,21.7c0-0.7,0-1.3,0-1.8c0-5.2,0-10.3,0-15.5c0-2.5,1.6-4.3,3.9-4.3c2.3,0,4,1.8,4,4.3
			c0,5.3,0,10.6,0,15.9c0,0.4,0,0.9,0,1.5c0.5,0,1,0,1.4,0c5.2,0,10.4,0,15.6,0c2.8,0,4.6,1.6,4.6,4c0,2.4-1.8,3.9-4.6,3.9
			c-5.2,0-10.4,0-15.6,0c-0.4,0-0.9,0-1.5,0c0,0.5,0,1,0,1.4c0,5.4,0,10.8,0,16.3c0,1.9-1.1,3.3-2.9,3.9c-1.6,0.5-3.4-0.1-4.3-1.6
			c-0.4-0.7-0.7-1.7-0.7-2.5c-0.1-5.3,0-10.6,0-15.9c0-0.4,0-0.9,0-1.5c-0.5,0-0.9,0-1.4,0c-5.3,0-10.6,0-15.9,0
			c-2.6,0-4.4-1.6-4.4-3.9c0-2.3,1.8-4,4.4-4C77.1,21.7,82.8,21.7,88.7,21.7z"/>
	</g>
</g>
</svg>
